<svg width="1200" height="900" viewBox="0 0 1200 900" fill="none" xmlns="http://www.w3.org/2000/svg" role="img" aria-label="Stylizowana grafika badania o chatbotach AI">
  <defs>
    <linearGradient id="bg" x1="96" y1="72" x2="1116" y2="864" gradientUnits="userSpaceOnUse">
      <stop stop-color="#09111E"/>
      <stop offset="1" stop-color="#0C1B31"/>
    </linearGradient>
    <linearGradient id="panel" x1="196" y1="164" x2="1032" y2="780" gradientUnits="userSpaceOnUse">
      <stop stop-color="#111C31" stop-opacity="0.98"/>
      <stop offset="1" stop-color="#07111F" stop-opacity="0.94"/>
    </linearGradient>
    <linearGradient id="cyan" x1="252" y1="188" x2="962" y2="736" gradientUnits="userSpaceOnUse">
      <stop stop-color="#67E8F9"/>
      <stop offset="1" stop-color="#38BDF8"/>
    </linearGradient>
    <linearGradient id="soft" x1="342" y1="204" x2="900" y2="706" gradientUnits="userSpaceOnUse">
      <stop stop-color="#E0F2FE"/>
      <stop offset="1" stop-color="#A5F3FC"/>
    </linearGradient>
    <filter id="blur" x="-20%" y="-20%" width="140%" height="140%">
      <feGaussianBlur stdDeviation="30"/>
    </filter>
    <filter id="shadow" x="-20%" y="-20%" width="140%" height="140%">
      <feDropShadow dx="0" dy="24" stdDeviation="24" flood-color="#000000" flood-opacity="0.45"/>
    </filter>
    <filter id="innerGlow" x="-20%" y="-20%" width="140%" height="140%">
      <feGaussianBlur stdDeviation="10" result="blurred"/>
      <feColorMatrix in="blurred" type="matrix" values="1 0 0 0 0  0 1 0 0 0.02  0 0 1 0 0.06  0 0 0 0.7 0" result="glow"/>
      <feBlend in="SourceGraphic" in2="glow" mode="screen"/>
    </filter>
  </defs>

  <rect width="1200" height="900" rx="40" fill="url(#bg)"/>
  <circle cx="210" cy="150" r="120" fill="#38BDF8" fill-opacity="0.16" filter="url(#blur)"/>
  <circle cx="960" cy="126" r="160" fill="#67E8F9" fill-opacity="0.11" filter="url(#blur)"/>
  <circle cx="988" cy="770" r="150" fill="#38BDF8" fill-opacity="0.12" filter="url(#blur)"/>

  <rect x="72" y="68" width="1056" height="764" rx="36" fill="url(#panel)" stroke="#A5D2FF" stroke-opacity="0.14"/>

  <g opacity="0.9">
    <path d="M248 228C352 162 486 140 612 160C758 184 864 274 924 388C990 512 994 644 940 728"
      stroke="url(#cyan)" stroke-opacity="0.22" stroke-width="3" stroke-dasharray="10 12"/>
    <path d="M254 624C330 702 430 742 548 744C674 746 786 708 880 624"
      stroke="url(#cyan)" stroke-opacity="0.18" stroke-width="3" stroke-dasharray="12 12"/>
  </g>

  <g filter="url(#shadow)">
    <rect x="136" y="214" width="434" height="500" rx="34" fill="#0D1626" stroke="#DFF7FF" stroke-opacity="0.14"/>
    <rect x="166" y="246" width="374" height="28" rx="14" fill="#18324E"/>
    <rect x="166" y="294" width="286" height="14" rx="7" fill="#305472" fill-opacity="0.7"/>
    <rect x="166" y="320" width="240" height="14" rx="7" fill="#305472" fill-opacity="0.55"/>
    <rect x="166" y="352" width="318" height="252" rx="26" fill="url(#cyan)" fill-opacity="0.08" stroke="#8EEBFF" stroke-opacity="0.12"/>

    <circle cx="260" cy="438" r="56" fill="#67E8F9" fill-opacity="0.16"/>
    <circle cx="260" cy="438" r="26" fill="url(#soft)" fill-opacity="0.96"/>
    <path d="M294 414C322 392 358 384 396 388C438 392 476 416 492 454C468 490 434 512 392 516C352 520 316 506 290 482"
      stroke="url(#cyan)" stroke-opacity="0.78" stroke-width="6" stroke-linecap="round" stroke-linejoin="round"/>
    <circle cx="394" cy="392" r="8" fill="#E0F2FE"/>
    <circle cx="468" cy="452" r="8" fill="#E0F2FE"/>
    <circle cx="396" cy="516" r="8" fill="#E0F2FE"/>
    <circle cx="324" cy="472" r="8" fill="#E0F2FE"/>

    <rect x="166" y="636" width="374" height="42" rx="21" fill="#102237" stroke="#A5D2FF" stroke-opacity="0.08"/>
    <circle cx="198" cy="657" r="8" fill="#67E8F9"/>
    <rect x="220" y="650" width="180" height="12" rx="6" fill="#7DD3FC" fill-opacity="0.7"/>
  </g>

  <g filter="url(#shadow)">
    <rect x="650" y="196" width="404" height="170" rx="30" fill="#0D1626" stroke="#DFF7FF" stroke-opacity="0.14"/>
    <path d="M694 248C694 230 708 216 726 216H972C990 216 1004 230 1004 248V284C1004 302 990 316 972 316H786L736 350V316H726C708 316 694 302 694 284V248Z"
      fill="url(#cyan)" fill-opacity="0.16" stroke="#67E8F9" stroke-opacity="0.38"/>
    <circle cx="732" cy="256" r="8" fill="#67E8F9"/>
    <circle cx="764" cy="256" r="8" fill="#67E8F9" fill-opacity="0.82"/>
    <circle cx="796" cy="256" r="8" fill="#67E8F9" fill-opacity="0.64"/>
    <rect x="824" y="246" width="136" height="18" rx="9" fill="#DFF7FF" fill-opacity="0.72"/>

    <rect x="668" y="364" width="422" height="238" rx="32" fill="#09111E" stroke="#A5D2FF" stroke-opacity="0.12"/>
    <g opacity="0.95">
      <path d="M700 400H1030" stroke="#274564" stroke-width="2"/>
      <path d="M700 444H1030" stroke="#274564" stroke-width="2"/>
      <path d="M700 488H1030" stroke="#274564" stroke-width="2"/>
      <path d="M700 532H1030" stroke="#274564" stroke-width="2"/>
      <path d="M700 576H1030" stroke="#274564" stroke-width="2"/>
      <circle cx="746" cy="400" r="14" fill="#67E8F9" fill-opacity="0.18"/>
      <circle cx="746" cy="444" r="14" fill="#67E8F9" fill-opacity="0.18"/>
      <circle cx="746" cy="488" r="14" fill="#67E8F9" fill-opacity="0.18"/>
      <circle cx="746" cy="532" r="14" fill="#67E8F9" fill-opacity="0.18"/>
      <circle cx="746" cy="576" r="14" fill="#67E8F9" fill-opacity="0.18"/>
      <rect x="776" y="390" width="184" height="20" rx="10" fill="#DFF7FF" fill-opacity="0.78"/>
      <rect x="776" y="434" width="136" height="20" rx="10" fill="#DFF7FF" fill-opacity="0.56"/>
      <rect x="776" y="478" width="214" height="20" rx="10" fill="#DFF7FF" fill-opacity="0.72"/>
      <rect x="776" y="522" width="160" height="20" rx="10" fill="#DFF7FF" fill-opacity="0.58"/>
      <rect x="776" y="566" width="198" height="20" rx="10" fill="#DFF7FF" fill-opacity="0.68"/>
    </g>
  </g>

  <g filter="url(#innerGlow)">
    <path d="M586 554C602 498 630 450 670 412C710 374 752 350 804 338"
      stroke="url(#cyan)" stroke-opacity="0.9" stroke-width="5" stroke-linecap="round"/>
    <circle cx="586" cy="554" r="10" fill="#67E8F9"/>
    <circle cx="670" cy="412" r="8" fill="#E0F2FE"/>
    <circle cx="804" cy="338" r="8" fill="#E0F2FE"/>
    <circle cx="712" cy="456" r="10" fill="#38BDF8" fill-opacity="0.88"/>
    <circle cx="768" cy="398" r="10" fill="#67E8F9" fill-opacity="0.9"/>
  </g>

  <g opacity="0.9">
    <rect x="118" y="118" width="170" height="52" rx="18" fill="#08111D" stroke="#67E8F9" stroke-opacity="0.32"/>
    <rect x="146" y="136" width="116" height="14" rx="7" fill="#DFF7FF" fill-opacity="0.8"/>
    <rect x="892" y="660" width="188" height="52" rx="18" fill="#08111D" stroke="#67E8F9" stroke-opacity="0.28"/>
    <rect x="922" y="678" width="126" height="14" rx="7" fill="#DFF7FF" fill-opacity="0.72"/>
  </g>
</svg>
